<svg width="47" height="47" viewBox="0 0 47 47" fill="none" xmlns="http://www.w3.org/2000/svg">
<path fill-rule="evenodd" clip-rule="evenodd" d="M18.3067 45.5321C30.556 48.5857 42.9615 41.1315 46.0152 28.8863C49.0689 16.6391 41.6127 4.23383 29.3634 1.18205C17.1218 -1.87355 4.71632 5.58257 1.66448 17.8316C-1.38926 30.0769 6.06508 42.4822 18.3086 45.534L18.3067 45.5321ZM26.464 13.1092C29.8054 13.3454 32.4648 14.3246 32.8134 17.3801C33.0725 19.6166 32.1581 20.9787 30.6741 21.7673C33.1506 22.316 34.7223 23.7542 34.4746 27.0461C34.1679 31.1323 31.1446 32.281 26.805 32.6048L26.8774 36.891L24.2942 36.9387L24.2199 32.7096C23.5512 32.721 22.8654 32.7286 22.1549 32.7248L22.2311 36.9729L19.6479 37.0187L19.5717 32.7248L18.842 32.7305C18.4725 32.7324 18.0991 32.7343 17.7257 32.742L14.3614 32.7991L14.8205 29.7054C14.8205 29.7054 16.7332 29.7016 16.6989 29.673C17.4304 29.6578 17.6152 29.1301 17.6552 28.7986L17.539 22.0226L17.7238 22.0188H17.8114C17.7204 22.0084 17.6287 22.0039 17.5371 22.0055L17.4533 17.1668C17.3447 16.6448 16.9942 16.0428 15.9483 16.0619C15.9769 16.0238 14.07 16.0943 14.07 16.0943L14.0204 13.3359L17.5866 13.2749V13.2882C18.1219 13.2787 18.6725 13.2597 19.2307 13.2387L19.1583 8.99249L21.7415 8.94868L21.8139 13.1092C22.5035 13.0844 23.1969 13.0577 23.877 13.0463L23.8046 8.91248L26.3897 8.86676L26.464 13.113V13.1092Z" fill="white"/>
</svg>
